<svg width="24" height="24" viewBox="0 0 24 24" fill="none" xmlns="http://www.w3.org/2000/svg">
<g id="Outline/Communication/Contacts">
<g id="Icon">
<path d="M10.0009 8.99984C10.0009 7.89527 10.8963 6.99984 12.0009 6.99984C13.1055 6.99984 14.0009 7.89527 14.0009 8.99984C14.0009 10.1044 13.1055 10.9998 12.0009 10.9998C10.8963 10.9998 10.0009 10.1044 10.0009 8.99984Z" fill="black"/>
<path d="M11.0009 12.4998C9.34406 12.4998 8.00092 13.843 8.00092 15.4998C8.00092 16.0521 8.44863 16.4998 9.00092 16.4998H15.0009C15.5532 16.4998 16.0009 16.0521 16.0009 15.4998C16.0009 13.843 14.6578 12.4998 13.0009 12.4998H11.0009Z" fill="black"/>
<path fill-rule="evenodd" clip-rule="evenodd" d="M7.54444 2.88252C10.5002 2.45778 13.5016 2.45778 16.4574 2.88252C17.9229 3.09311 19.052 4.2825 19.1861 5.75695L19.3131 7.15269C19.6064 10.3775 19.6064 13.6222 19.3131 16.847L19.1861 18.2427C19.052 19.7172 17.9229 20.9066 16.4574 21.1172C13.5016 21.5419 10.5002 21.5419 7.54444 21.1172C6.07895 20.9066 4.94986 19.7172 4.81573 18.2427L4.68876 16.847C4.39541 13.6222 4.39541 10.3775 4.68876 7.15269L4.81573 5.75696C4.94986 4.2825 6.07895 3.09311 7.54444 2.88252ZM16.244 4.36727C13.4298 3.96286 10.5721 3.96286 7.7578 4.36727C6.98001 4.47904 6.38075 5.11029 6.30956 5.89285L6.1826 7.28858C5.89747 10.4229 5.89747 13.5767 6.1826 16.7111L6.30956 18.1068C6.38075 18.8894 6.98 19.5206 7.7578 19.6324C10.5721 20.0368 13.4298 20.0368 16.2441 19.6324C17.0218 19.5206 17.6211 18.8894 17.6923 18.1068L17.8193 16.7111C18.1044 13.5767 18.1044 10.4229 17.8193 7.28858L17.6923 5.89284C17.6211 5.11029 17.0218 4.47904 16.244 4.36727Z" fill="black"/>
</g>
</g>
</svg>
