<svg width="12" height="12" viewBox="0 0 12 12" fill="none" xmlns="http://www.w3.org/2000/svg">
<path fill-rule="evenodd" clip-rule="evenodd" d="M1.06154 8.20282C-0.437037 4.5245 2.26903 0.5 6.24091 0.5H6.45519C9.42562 0.5 11.8336 2.90801 11.8336 5.87843C11.8336 9.18564 9.15259 11.8667 5.84538 11.8667H0.631864C0.419692 11.8667 0.230624 11.7328 0.160206 11.5326C0.0897872 11.3325 0.153354 11.1097 0.318783 10.9768L1.63311 9.9213C1.69058 9.87515 1.71091 9.79673 1.6831 9.72847L1.06154 8.20282ZM6.24091 1.5C2.97922 1.5 0.757007 4.8049 1.98763 7.82553L2.60919 9.35117C2.80386 9.82898 2.66155 10.3779 2.25927 10.701L2.05298 10.8667H5.84538C8.60031 10.8667 10.8336 8.63336 10.8336 5.87843C10.8336 3.46029 8.87333 1.5 6.45519 1.5H6.24091Z" fill="black"/>
</svg>
