<svg width="33" height="32" viewBox="0 0 33 32" fill="none" xmlns="http://www.w3.org/2000/svg">
<path fill-rule="evenodd" clip-rule="evenodd" d="M14.8185 22.1696C13.787 22.1696 12.9266 21.3813 12.8365 20.3537C12.6482 18.2053 12.6005 16.0474 12.6937 13.8936C12.5812 13.8861 12.4688 13.8783 12.3564 13.8701L10.3703 13.7253C9.10094 13.6328 8.39133 12.2173 9.07665 11.1448C10.5382 8.85747 13.2172 6.2974 15.4218 4.71375C16.0669 4.25036 16.9358 4.25036 17.5808 4.71375C19.7854 6.2974 22.4644 8.85747 23.926 11.1448C24.6113 12.2173 23.9017 13.6328 22.6323 13.7253L20.6462 13.8701C20.5338 13.8783 20.4214 13.8861 20.309 13.8936C20.4021 16.0474 20.3545 18.2053 20.1661 20.3537C20.0761 21.3813 19.2156 22.1696 18.1842 22.1696H14.8185ZM14.7433 13.0166C14.5917 15.3996 14.62 17.7907 14.828 20.1696H18.1746C18.3827 17.7907 18.411 15.3996 18.2594 13.0166C18.2424 12.7494 18.3332 12.4866 18.5115 12.287C18.6898 12.0873 18.9408 11.9675 19.2081 11.9543C19.6393 11.9331 20.0702 11.9067 20.5008 11.8754L21.9432 11.7702C20.6638 9.88582 19.0619 8.24015 17.2097 6.90968L16.5013 6.40082L15.7929 6.90968C13.9408 8.24015 12.3388 9.88582 11.0594 11.7702L12.5018 11.8754C12.9325 11.9067 13.3634 11.9331 13.7945 11.9543C14.0619 11.9675 14.3128 12.0873 14.4911 12.287C14.6694 12.4866 14.7603 12.7494 14.7433 13.0166Z" fill="#7E51FD"/>
<path d="M8.16797 22.6665C8.16797 22.1143 7.72025 21.6665 7.16797 21.6665C6.61568 21.6665 6.16797 22.1143 6.16797 22.6665V25.3332C6.16797 26.6219 7.21264 27.6665 8.5013 27.6665H24.5013C25.79 27.6665 26.8346 26.6219 26.8346 25.3332V22.6665C26.8346 22.1143 26.3869 21.6665 25.8346 21.6665C25.2823 21.6665 24.8346 22.1143 24.8346 22.6665V25.3332C24.8346 25.5173 24.6854 25.6665 24.5013 25.6665H8.5013C8.31721 25.6665 8.16797 25.5173 8.16797 25.3332V22.6665Z" fill="#7E51FD"/>
</svg>
