<svg width="16" height="16" viewBox="0 0 16 16" fill="none" xmlns="http://www.w3.org/2000/svg">
<path fill-rule="evenodd" clip-rule="evenodd" d="M7.99985 2.05265L6.52465 3.57898C6.36763 3.74144 6.15138 3.83318 5.92544 3.83318H3.83318V5.92544C3.83318 6.15138 3.74144 6.36763 3.57898 6.52465L2.05265 7.99985L3.57898 9.47505C3.74144 9.63207 3.83318 9.84832 3.83318 10.0743V12.1665H5.92544C6.15138 12.1665 6.36763 12.2583 6.52465 12.4207L7.99985 13.947L9.47505 12.4207C9.63206 12.2583 9.84832 12.1665 10.0743 12.1665H12.1665V10.0743C12.1665 9.84832 12.2583 9.63206 12.4207 9.47505L13.947 7.99985L12.4207 6.52465C12.2583 6.36763 12.1665 6.15138 12.1665 5.92544V3.83318H10.0743C9.84832 3.83318 9.63206 3.74144 9.47505 3.57898L7.99985 2.05265ZM7.40064 1.23369C7.72822 0.894758 8.27148 0.894759 8.59905 1.23369L10.145 2.83318H12.3332C12.7934 2.83318 13.1665 3.20628 13.1665 3.66651V5.85474L14.766 7.40064C15.1049 7.72822 15.1049 8.27148 14.766 8.59906L13.1665 10.145V12.3332C13.1665 12.7934 12.7934 13.1665 12.3332 13.1665H10.145L8.59905 14.766C8.27147 15.1049 7.72822 15.1049 7.40064 14.766L5.85473 13.1665H3.66651C3.20628 13.1665 2.83318 12.7934 2.83318 12.3332V10.145L1.23369 8.59906C0.894759 8.27148 0.894758 7.72822 1.23369 7.40064L2.83318 5.85474V3.66651C2.83318 3.20628 3.20628 2.83318 3.66651 2.83318H5.85474L7.40064 1.23369Z" fill="black"/>
<path fill-rule="evenodd" clip-rule="evenodd" d="M4.83318 7.99985C4.83318 6.25095 6.25095 4.83318 7.99985 4.83318C9.74875 4.83318 11.1665 6.25095 11.1665 7.99985C11.1665 9.74875 9.74875 11.1665 7.99985 11.1665C6.25095 11.1665 4.83318 9.74875 4.83318 7.99985ZM7.99985 5.83318C6.80323 5.83318 5.83318 6.80323 5.83318 7.99985C5.83318 9.19647 6.80323 10.1665 7.99985 10.1665C9.19647 10.1665 10.1665 9.19647 10.1665 7.99985C10.1665 6.80323 9.19647 5.83318 7.99985 5.83318Z" fill="black"/>
</svg>
