<svg width="14" height="12" viewBox="0 0 14 12" fill="none" xmlns="http://www.w3.org/2000/svg">
<path fill-rule="evenodd" clip-rule="evenodd" d="M3.83372 2.42069V1.64084C3.83372 1.06334 4.25622 0.572746 4.82732 0.48708L5.6406 0.365089C6.54208 0.229866 7.45869 0.229866 8.36017 0.365089L9.17345 0.48708C9.74456 0.572746 10.1671 1.06334 10.1671 1.64084V2.42069L11.3097 2.51293C12.1847 2.58355 12.8984 3.24231 13.0387 4.10879C13.3488 6.02382 13.3488 7.97627 13.0387 9.89129C12.8984 10.7578 12.1847 11.4165 11.3097 11.4872L10.0618 11.5879C8.02416 11.7524 5.9766 11.7524 3.93897 11.5879L2.69102 11.4872C1.8161 11.4165 1.10241 10.7578 0.962086 9.89129C0.651961 7.97627 0.651961 6.02382 0.962086 4.10879C1.10241 3.24231 1.8161 2.58355 2.69102 2.51293L3.83372 2.42069ZM5.78894 1.35403C6.59208 1.23355 7.4087 1.23355 8.21183 1.35402L9.02511 1.47602C9.1067 1.48825 9.16705 1.55834 9.16705 1.64084V2.35058C7.72378 2.26826 6.27699 2.26826 4.83372 2.35058V1.64084C4.83372 1.55834 4.89408 1.48825 4.97566 1.47602L5.78894 1.35403ZM4.01943 3.40895C6.0035 3.2488 7.99726 3.2488 9.98134 3.40895L11.2293 3.50969C11.6454 3.54327 11.9848 3.85657 12.0515 4.26865C12.0931 4.52527 12.1288 4.7826 12.1585 5.04044C8.90679 6.64164 5.09398 6.64164 1.84224 5.04045C1.872 4.7826 1.90767 4.52527 1.94923 4.26865C2.01596 3.85657 2.35538 3.54327 2.77148 3.50969L4.01943 3.40895ZM1.75298 6.10448C5.08591 7.62029 8.91485 7.6203 12.2478 6.10448C12.3113 7.31526 12.2459 8.53112 12.0515 9.73143C11.9848 10.1435 11.6454 10.4568 11.2293 10.4904L9.98134 10.5911C7.99726 10.7513 6.0035 10.7513 4.01943 10.5911L2.77148 10.4904C2.35538 10.4568 2.01596 10.1435 1.94923 9.73143C1.75484 8.53112 1.68943 7.31526 1.75298 6.10448Z" fill="black"/>
</svg>
