<svg width="24" height="24" viewBox="0 0 24 24" fill="none" xmlns="http://www.w3.org/2000/svg">
<g id="Outline/Status/Bookmark">
<path id="Icon" fill-rule="evenodd" clip-rule="evenodd" d="M16.023 4.82605C13.4298 4.39132 10.7677 4.39132 8.17461 4.82605C7.68661 4.90786 7.29902 5.28279 7.20174 5.76572C6.31667 10.1597 6.26837 14.6812 7.0594 19.0931L7.22295 20.0053L10.8935 16.5183C11.5689 15.8766 12.6287 15.8766 13.3041 16.5183L16.9746 20.0053L17.1382 19.0931C17.9292 14.6812 17.8809 10.1597 16.9958 5.76572C16.8986 5.28279 16.511 4.90786 16.023 4.82605ZM7.9266 3.34669C10.6839 2.88444 13.5137 2.88444 16.271 3.34669C17.3702 3.53097 18.2458 4.37479 18.4663 5.46953C19.3886 10.0484 19.439 14.7602 18.6146 19.3578L18.3931 20.5931C18.2072 21.63 16.9432 22.0444 16.1795 21.3189L12.271 17.6058C12.1745 17.5141 12.0231 17.5141 11.9266 17.6058L8.01807 21.3189C7.25437 22.0444 5.99033 21.63 5.80443 20.5931L5.58294 19.3578C4.75863 14.7602 4.80895 10.0484 5.73128 5.46953C5.95179 4.37479 6.82739 3.53097 7.9266 3.34669Z" fill="black"/>
</g>
</svg>
