<svg width="48" height="48" viewBox="0 0 48 48" fill="none" xmlns="http://www.w3.org/2000/svg">
<rect opacity="0.12" width="48" height="48" rx="12" fill="#5669FF"/>
<circle cx="30.7268" cy="16.8841" r="3.88407" fill="#5669FF"/>
<path fill-rule="evenodd" clip-rule="evenodd" d="M36.5528 26.6091C36.5528 26.6041 36.5528 26.5992 36.5528 26.5943C36.5528 23.6447 33.9444 21.2537 30.7267 21.2537C27.5091 21.2537 24.9007 23.6447 24.9006 26.5941H24.9006V26.816C24.9006 29.643 27.1923 31.9347 30.0194 31.9347H30.6844C30.6985 31.9348 30.7126 31.9349 30.7267 31.9349C30.7409 31.9349 30.755 31.9348 30.7691 31.9347H31.4341C34.2611 31.9347 36.5528 29.643 36.5528 26.816V26.6091Z" fill="#5669FF"/>
<circle cx="16.8262" cy="16.9881" r="3.88407" fill="#5669FF"/>
<path fill-rule="evenodd" clip-rule="evenodd" d="M22.6522 26.6983V26.9201C22.6522 29.7471 20.3605 32.0388 17.5335 32.0388H16.85C16.842 32.0388 16.8341 32.0389 16.8261 32.0389C16.8181 32.0389 16.8102 32.0388 16.8022 32.0388H16.1187C13.2917 32.0388 11 29.7471 11 26.9201V26.6983C11 26.6982 11 26.6982 11 26.6982C11 23.7487 13.6085 21.3577 16.8261 21.3577C20.0438 21.3577 22.6522 23.7487 22.6522 26.6982C22.6522 26.6982 22.6522 26.6982 22.6522 26.6983Z" fill="#5669FF"/>
<circle cx="23.8262" cy="19.8841" r="4.03407" fill="#5669FF" stroke="#E1E4F6" stroke-width="0.3"/>
<mask id="path-7-outside-1_146_1097" maskUnits="userSpaceOnUse" x="17" y="23.2537" width="13" height="12" fill="black">
<rect fill="white" x="17" y="23.2537" width="13" height="12"/>
<path fill-rule="evenodd" clip-rule="evenodd" d="M29.6522 29.5943V29.8161C29.6522 32.6431 27.3605 34.9348 24.5335 34.9348H23.85C23.842 34.9348 23.8341 34.9349 23.8261 34.9349C23.8181 34.9349 23.8102 34.9348 23.8022 34.9348H23.1187C20.2917 34.9348 18 32.6431 18 29.8161V29.5943C18 29.5942 18 29.5942 18 29.5942C18 26.6447 20.6085 24.2537 23.8261 24.2537C27.0438 24.2537 29.6522 26.6447 29.6522 29.5942C29.6522 29.5942 29.6522 29.5942 29.6522 29.5943Z"/>
</mask>
<path fill-rule="evenodd" clip-rule="evenodd" d="M29.6522 29.5943V29.8161C29.6522 32.6431 27.3605 34.9348 24.5335 34.9348H23.85C23.842 34.9348 23.8341 34.9349 23.8261 34.9349C23.8181 34.9349 23.8102 34.9348 23.8022 34.9348H23.1187C20.2917 34.9348 18 32.6431 18 29.8161V29.5943C18 29.5942 18 29.5942 18 29.5942C18 26.6447 20.6085 24.2537 23.8261 24.2537C27.0438 24.2537 29.6522 26.6447 29.6522 29.5942C29.6522 29.5942 29.6522 29.5942 29.6522 29.5943Z" fill="#5669FF"/>
<path d="M23.85 34.9348V34.6348L23.8489 34.6348L23.85 34.9348ZM23.8022 34.9348L23.8034 34.6348H23.8022V34.9348ZM18 29.5942L17.7 29.5942V29.5942H18ZM29.6522 29.5942H29.9522V29.5942L29.6522 29.5942ZM29.3522 29.5943V29.8161H29.9522V29.5943H29.3522ZM29.3522 29.8161C29.3522 32.4774 27.1948 34.6348 24.5335 34.6348V35.2348C27.5262 35.2348 29.9522 32.8088 29.9522 29.8161H29.3522ZM24.5335 34.6348H23.85V35.2348H24.5335V34.6348ZM23.8489 34.6348C23.8413 34.6348 23.8337 34.6349 23.8261 34.6349V35.2349C23.8344 35.2349 23.8428 35.2348 23.8511 35.2348L23.8489 34.6348ZM23.8261 34.6349C23.8185 34.6349 23.8109 34.6348 23.8034 34.6348L23.8011 35.2348C23.8095 35.2348 23.8178 35.2349 23.8261 35.2349V34.6349ZM23.8022 34.6348H23.1187V35.2348H23.8022V34.6348ZM23.1187 34.6348C20.4574 34.6348 18.3 32.4774 18.3 29.8161H17.7C17.7 32.8088 20.1261 35.2348 23.1187 35.2348V34.6348ZM18.3 29.8161V29.5943H17.7V29.8161H18.3ZM18.3 29.5943C18.3 29.5943 18.3 29.5943 18.3 29.5943C18.3 29.5943 18.3 29.5943 18.3 29.5943C18.3 29.5943 18.3 29.5943 18.3 29.5943C18.3 29.5943 18.3 29.5943 18.3 29.5943C18.3 29.5943 18.3 29.5943 18.3 29.5943V29.5943C18.3 29.5943 18.3 29.5943 18.3 29.5943V29.5943C18.3 29.5943 18.3 29.5943 18.3 29.5943V29.5943C18.3 29.5943 18.3 29.5943 18.3 29.5943V29.5943C18.3 29.5943 18.3 29.5943 18.3 29.5943V29.5943C18.3 29.5943 18.3 29.5943 18.3 29.5943C18.3 29.5943 18.3 29.5943 18.3 29.5943C18.3 29.5943 18.3 29.5943 18.3 29.5943C18.3 29.5943 18.3 29.5943 18.3 29.5943V29.5943C18.3 29.5943 18.3 29.5943 18.3 29.5943V29.5942C18.3 29.5942 18.3 29.5942 18.3 29.5942C18.3 29.5942 18.3 29.5942 18.3 29.5942C18.3 29.5942 18.3 29.5942 18.3 29.5942C18.3 29.5942 18.3 29.5942 18.3 29.5942V29.5942C18.3 29.5942 18.3 29.5942 18.3 29.5942V29.5942C18.3 29.5942 18.3 29.5942 18.3 29.5942C18.3 29.5942 18.3 29.5942 18.3 29.5942C18.3 29.5942 18.3 29.5942 18.3 29.5942C18.3 29.5942 18.3 29.5942 18.3 29.5942V29.5942C18.3 29.5942 18.3 29.5942 18.3 29.5942C18.3 29.5942 18.3 29.5942 18.3 29.5942C18.3 29.5942 18.3 29.5942 18.3 29.5942C18.3 29.5942 18.3 29.5942 18.3 29.5942V29.5942C18.3 29.5942 18.3 29.5942 18.3 29.5942V29.5942C18.3 29.5942 18.3 29.5942 18.3 29.5942C18.3 29.5942 18.3 29.5942 18.3 29.5942V29.5942C18.3 29.5942 18.3 29.5942 18.3 29.5942V29.5942C18.3 29.5942 18.3 29.5942 18.3 29.5942C18.3 29.5942 18.3 29.5942 18.3 29.5942V29.5942C18.3 29.5942 18.3 29.5942 18.3 29.5942V29.5942C18.3 29.5942 18.3 29.5942 18.3 29.5942C18.3 29.5942 18.3 29.5942 18.3 29.5942V29.5942C18.3 29.5942 18.3 29.5942 18.3 29.5942V29.5942C18.3 29.5942 18.3 29.5942 18.3 29.5942C18.3 29.5942 18.3 29.5942 18.3 29.5942C18.3 29.5942 18.3 29.5942 18.3 29.5942C18.3 29.5942 18.3 29.5942 18.3 29.5942V29.5942C18.3 29.5942 18.3 29.5942 18.3 29.5942C18.3 29.5942 18.3 29.5942 18.3 29.5942C18.3 29.5942 18.3 29.5942 18.3 29.5942C18.3 29.5942 18.3 29.5942 18.3 29.5942V29.5942C18.3 29.5942 18.3 29.5942 18.3 29.5942V29.5942C18.3 29.5942 18.3 29.5942 18.3 29.5942C18.3 29.5942 18.3 29.5942 18.3 29.5942C18.3 29.5942 18.3 29.5942 18.3 29.5942C18.3 29.5942 18.3 29.5942 18.3 29.5942V29.5942C18.3 29.5942 18.3 29.5942 18.3 29.5942V29.5942C18.3 29.5942 18.3 29.5942 18.3 29.5942C18.3 29.5942 18.3 29.5942 18.3 29.5942C18.3 29.5942 18.3 29.5942 18.3 29.5942C18.3 29.5942 18.3 29.5942 18.3 29.5942V29.5942C18.3 29.5942 18.3 29.5942 18.3 29.5942V29.5942C18.3 29.5942 18.3 29.5942 18.3 29.5942V29.5942C18.3 29.5942 18.3 29.5942 18.3 29.5942V29.5942C18.3 29.5942 18.3 29.5942 18.3 29.5942V29.5942C18.3 29.5942 18.3 29.5942 18.3 29.5942C18.3 29.5942 18.3 29.5942 18.3 29.5942C18.3 29.5942 18.3 29.5942 18.3 29.5942C18.3 29.5942 18.3 29.5942 18.3 29.5942C18.3 29.5942 18.3 29.5942 18.3 29.5942H17.7C17.7 29.5942 17.7 29.5942 17.7 29.5942C17.7 29.5942 17.7 29.5942 17.7 29.5942C17.7 29.5942 17.7 29.5942 17.7 29.5942C17.7 29.5942 17.7 29.5942 17.7 29.5942C17.7 29.5942 17.7 29.5942 17.7 29.5942V29.5942C17.7 29.5942 17.7 29.5942 17.7 29.5942V29.5942C17.7 29.5942 17.7 29.5942 17.7 29.5942V29.5942C17.7 29.5942 17.7 29.5942 17.7 29.5942V29.5942C17.7 29.5942 17.7 29.5942 17.7 29.5942V29.5942C17.7 29.5942 17.7 29.5942 17.7 29.5942C17.7 29.5942 17.7 29.5942 17.7 29.5942C17.7 29.5942 17.7 29.5942 17.7 29.5942C17.7 29.5942 17.7 29.5942 17.7 29.5942V29.5942C17.7 29.5942 17.7 29.5942 17.7 29.5942V29.5942C17.7 29.5942 17.7 29.5942 17.7 29.5942C17.7 29.5942 17.7 29.5942 17.7 29.5942C17.7 29.5942 17.7 29.5942 17.7 29.5942C17.7 29.5942 17.7 29.5942 17.7 29.5942V29.5942C17.7 29.5942 17.7 29.5942 17.7 29.5942V29.5942C17.7 29.5942 17.7 29.5942 17.7 29.5942C17.7 29.5942 17.7 29.5942 17.7 29.5942C17.7 29.5942 17.7 29.5942 17.7 29.5942C17.7 29.5942 17.7 29.5942 17.7 29.5942V29.5942C17.7 29.5942 17.7 29.5942 17.7 29.5942C17.7 29.5942 17.7 29.5942 17.7 29.5942C17.7 29.5942 17.7 29.5942 17.7 29.5942C17.7 29.5942 17.7 29.5942 17.7 29.5942V29.5942C17.7 29.5942 17.7 29.5942 17.7 29.5942V29.5942C17.7 29.5942 17.7 29.5942 17.7 29.5942C17.7 29.5942 17.7 29.5942 17.7 29.5942V29.5942C17.7 29.5942 17.7 29.5942 17.7 29.5942V29.5942C17.7 29.5942 17.7 29.5942 17.7 29.5942C17.7 29.5942 17.7 29.5942 17.7 29.5942V29.5942C17.7 29.5942 17.7 29.5942 17.7 29.5942V29.5942C17.7 29.5942 17.7 29.5942 17.7 29.5942C17.7 29.5942 17.7 29.5942 17.7 29.5942V29.5942C17.7 29.5942 17.7 29.5942 17.7 29.5942V29.5942C17.7 29.5942 17.7 29.5942 17.7 29.5942C17.7 29.5942 17.7 29.5942 17.7 29.5942C17.7 29.5942 17.7 29.5942 17.7 29.5942C17.7 29.5942 17.7 29.5942 17.7 29.5942V29.5942C17.7 29.5942 17.7 29.5942 17.7 29.5942C17.7 29.5942 17.7 29.5942 17.7 29.5942C17.7 29.5942 17.7 29.5942 17.7 29.5942C17.7 29.5942 17.7 29.5942 17.7 29.5942V29.5942C17.7 29.5942 17.7 29.5942 17.7 29.5942V29.5942C17.7 29.5942 17.7 29.5942 17.7 29.5942C17.7 29.5942 17.7 29.5942 17.7 29.5942C17.7 29.5942 17.7 29.5942 17.7 29.5942C17.7 29.5942 17.7 29.5942 17.7 29.5942V29.5943C17.7 29.5943 17.7 29.5943 17.7 29.5943V29.5943C17.7 29.5943 17.7 29.5943 17.7 29.5943C17.7 29.5943 17.7 29.5943 17.7 29.5943C17.7 29.5943 17.7 29.5943 17.7 29.5943C17.7 29.5943 17.7 29.5943 17.7 29.5943V29.5943C17.7 29.5943 17.7 29.5943 17.7 29.5943V29.5943C17.7 29.5943 17.7 29.5943 17.7 29.5943V29.5943C17.7 29.5943 17.7 29.5943 17.7 29.5943V29.5943C17.7 29.5943 17.7 29.5943 17.7 29.5943V29.5943C17.7 29.5943 17.7 29.5943 17.7 29.5943C17.7 29.5943 17.7 29.5943 17.7 29.5943C17.7 29.5943 17.7 29.5943 17.7 29.5943C17.7 29.5943 17.7 29.5943 17.7 29.5943C17.7 29.5943 17.7 29.5943 17.7 29.5943H18.3ZM18.3 29.5942C18.3 26.8344 20.749 24.5537 23.8261 24.5537V23.9537C20.4679 23.9537 17.7 26.455 17.7 29.5942L18.3 29.5942ZM23.8261 24.5537C26.9032 24.5537 29.3522 26.8344 29.3522 29.5942L29.9522 29.5942C29.9522 26.455 27.1843 23.9537 23.8261 23.9537V24.5537ZM29.3522 29.5942C29.3522 29.5942 29.3522 29.5942 29.3522 29.5942C29.3522 29.5942 29.3522 29.5942 29.3522 29.5942C29.3522 29.5942 29.3522 29.5942 29.3522 29.5942C29.3522 29.5942 29.3522 29.5942 29.3522 29.5942C29.3522 29.5942 29.3522 29.5942 29.3522 29.5942V29.5942C29.3522 29.5942 29.3522 29.5942 29.3522 29.5942V29.5942C29.3522 29.5942 29.3522 29.5942 29.3522 29.5942V29.5942C29.3522 29.5942 29.3522 29.5942 29.3522 29.5942V29.5942C29.3522 29.5942 29.3522 29.5942 29.3522 29.5942V29.5942C29.3522 29.5942 29.3522 29.5942 29.3522 29.5942C29.3522 29.5942 29.3522 29.5942 29.3522 29.5942C29.3522 29.5942 29.3522 29.5942 29.3522 29.5942C29.3522 29.5942 29.3522 29.5942 29.3522 29.5942V29.5942C29.3522 29.5942 29.3522 29.5942 29.3522 29.5942V29.5942C29.3522 29.5942 29.3522 29.5942 29.3522 29.5942C29.3522 29.5942 29.3522 29.5942 29.3522 29.5942C29.3522 29.5942 29.3522 29.5942 29.3522 29.5942C29.3522 29.5942 29.3522 29.5942 29.3522 29.5942V29.5942C29.3522 29.5942 29.3522 29.5942 29.3522 29.5942V29.5942C29.3522 29.5942 29.3522 29.5942 29.3522 29.5942C29.3522 29.5942 29.3522 29.5942 29.3522 29.5942C29.3522 29.5942 29.3522 29.5942 29.3522 29.5942C29.3522 29.5942 29.3522 29.5942 29.3522 29.5942V29.5942C29.3522 29.5942 29.3522 29.5942 29.3522 29.5942C29.3522 29.5942 29.3522 29.5942 29.3522 29.5942C29.3522 29.5942 29.3522 29.5942 29.3522 29.5942C29.3522 29.5942 29.3522 29.5942 29.3522 29.5942V29.5942C29.3522 29.5942 29.3522 29.5942 29.3522 29.5942V29.5942C29.3522 29.5942 29.3522 29.5942 29.3522 29.5942C29.3522 29.5942 29.3522 29.5942 29.3522 29.5942V29.5942C29.3522 29.5942 29.3522 29.5942 29.3522 29.5942V29.5942C29.3522 29.5942 29.3522 29.5942 29.3522 29.5942C29.3522 29.5942 29.3522 29.5942 29.3522 29.5942V29.5942C29.3522 29.5942 29.3522 29.5942 29.3522 29.5942V29.5942C29.3522 29.5942 29.3522 29.5942 29.3522 29.5942C29.3522 29.5942 29.3522 29.5942 29.3522 29.5942V29.5942C29.3522 29.5942 29.3522 29.5942 29.3522 29.5942V29.5942C29.3522 29.5942 29.3522 29.5942 29.3522 29.5942C29.3522 29.5942 29.3522 29.5942 29.3522 29.5942C29.3522 29.5942 29.3522 29.5942 29.3522 29.5942C29.3522 29.5942 29.3522 29.5942 29.3522 29.5942V29.5942C29.3522 29.5942 29.3522 29.5942 29.3522 29.5942C29.3522 29.5942 29.3522 29.5942 29.3522 29.5942C29.3522 29.5942 29.3522 29.5942 29.3522 29.5942C29.3522 29.5942 29.3522 29.5942 29.3522 29.5942V29.5942C29.3522 29.5942 29.3522 29.5942 29.3522 29.5942V29.5942C29.3522 29.5942 29.3522 29.5942 29.3522 29.5942C29.3522 29.5942 29.3522 29.5942 29.3522 29.5942C29.3522 29.5942 29.3522 29.5942 29.3522 29.5942C29.3522 29.5942 29.3522 29.5942 29.3522 29.5942V29.5943C29.3522 29.5943 29.3522 29.5943 29.3522 29.5943V29.5943C29.3522 29.5943 29.3522 29.5943 29.3522 29.5943C29.3522 29.5943 29.3522 29.5943 29.3522 29.5943C29.3522 29.5943 29.3522 29.5943 29.3522 29.5943C29.3522 29.5943 29.3522 29.5943 29.3522 29.5943V29.5943C29.3522 29.5943 29.3522 29.5943 29.3522 29.5943V29.5943C29.3522 29.5943 29.3522 29.5943 29.3522 29.5943V29.5943C29.3522 29.5943 29.3522 29.5943 29.3522 29.5943V29.5943C29.3522 29.5943 29.3522 29.5943 29.3522 29.5943V29.5943C29.3522 29.5943 29.3522 29.5943 29.3522 29.5943C29.3522 29.5943 29.3522 29.5943 29.3522 29.5943C29.3522 29.5943 29.3522 29.5943 29.3522 29.5943C29.3522 29.5943 29.3522 29.5943 29.3522 29.5943C29.3522 29.5943 29.3522 29.5943 29.3522 29.5943H29.9522C29.9522 29.5943 29.9522 29.5943 29.9522 29.5943C29.9522 29.5943 29.9522 29.5943 29.9522 29.5943C29.9522 29.5943 29.9522 29.5943 29.9522 29.5943C29.9522 29.5943 29.9522 29.5943 29.9522 29.5943C29.9522 29.5943 29.9522 29.5943 29.9522 29.5943V29.5943C29.9522 29.5943 29.9522 29.5943 29.9522 29.5943V29.5943C29.9522 29.5943 29.9522 29.5943 29.9522 29.5943V29.5943C29.9522 29.5943 29.9522 29.5943 29.9522 29.5943V29.5943C29.9522 29.5943 29.9522 29.5943 29.9522 29.5943V29.5943C29.9522 29.5943 29.9522 29.5943 29.9522 29.5943C29.9522 29.5943 29.9522 29.5943 29.9522 29.5943C29.9522 29.5943 29.9522 29.5943 29.9522 29.5943C29.9522 29.5943 29.9522 29.5943 29.9522 29.5943V29.5943C29.9522 29.5943 29.9522 29.5943 29.9522 29.5943V29.5942C29.9522 29.5942 29.9522 29.5942 29.9522 29.5942C29.9522 29.5942 29.9522 29.5942 29.9522 29.5942C29.9522 29.5942 29.9522 29.5942 29.9522 29.5942C29.9522 29.5942 29.9522 29.5942 29.9522 29.5942V29.5942C29.9522 29.5942 29.9522 29.5942 29.9522 29.5942V29.5942C29.9522 29.5942 29.9522 29.5942 29.9522 29.5942C29.9522 29.5942 29.9522 29.5942 29.9522 29.5942C29.9522 29.5942 29.9522 29.5942 29.9522 29.5942C29.9522 29.5942 29.9522 29.5942 29.9522 29.5942V29.5942C29.9522 29.5942 29.9522 29.5942 29.9522 29.5942C29.9522 29.5942 29.9522 29.5942 29.9522 29.5942C29.9522 29.5942 29.9522 29.5942 29.9522 29.5942C29.9522 29.5942 29.9522 29.5942 29.9522 29.5942V29.5942C29.9522 29.5942 29.9522 29.5942 29.9522 29.5942V29.5942C29.9522 29.5942 29.9522 29.5942 29.9522 29.5942C29.9522 29.5942 29.9522 29.5942 29.9522 29.5942V29.5942C29.9522 29.5942 29.9522 29.5942 29.9522 29.5942V29.5942C29.9522 29.5942 29.9522 29.5942 29.9522 29.5942C29.9522 29.5942 29.9522 29.5942 29.9522 29.5942V29.5942C29.9522 29.5942 29.9522 29.5942 29.9522 29.5942V29.5942C29.9522 29.5942 29.9522 29.5942 29.9522 29.5942C29.9522 29.5942 29.9522 29.5942 29.9522 29.5942V29.5942C29.9522 29.5942 29.9522 29.5942 29.9522 29.5942V29.5942C29.9522 29.5942 29.9522 29.5942 29.9522 29.5942C29.9522 29.5942 29.9522 29.5942 29.9522 29.5942C29.9522 29.5942 29.9522 29.5942 29.9522 29.5942C29.9522 29.5942 29.9522 29.5942 29.9522 29.5942V29.5942C29.9522 29.5942 29.9522 29.5942 29.9522 29.5942C29.9522 29.5942 29.9522 29.5942 29.9522 29.5942C29.9522 29.5942 29.9522 29.5942 29.9522 29.5942C29.9522 29.5942 29.9522 29.5942 29.9522 29.5942V29.5942C29.9522 29.5942 29.9522 29.5942 29.9522 29.5942V29.5942C29.9522 29.5942 29.9522 29.5942 29.9522 29.5942C29.9522 29.5942 29.9522 29.5942 29.9522 29.5942C29.9522 29.5942 29.9522 29.5942 29.9522 29.5942C29.9522 29.5942 29.9522 29.5942 29.9522 29.5942V29.5942C29.9522 29.5942 29.9522 29.5942 29.9522 29.5942V29.5942C29.9522 29.5942 29.9522 29.5942 29.9522 29.5942C29.9522 29.5942 29.9522 29.5942 29.9522 29.5942C29.9522 29.5942 29.9522 29.5942 29.9522 29.5942C29.9522 29.5942 29.9522 29.5942 29.9522 29.5942V29.5942C29.9522 29.5942 29.9522 29.5942 29.9522 29.5942V29.5942C29.9522 29.5942 29.9522 29.5942 29.9522 29.5942V29.5942C29.9522 29.5942 29.9522 29.5942 29.9522 29.5942V29.5942C29.9522 29.5942 29.9522 29.5942 29.9522 29.5942V29.5942C29.9522 29.5942 29.9522 29.5942 29.9522 29.5942C29.9522 29.5942 29.9522 29.5942 29.9522 29.5942C29.9522 29.5942 29.9522 29.5942 29.9522 29.5942C29.9522 29.5942 29.9522 29.5942 29.9522 29.5942C29.9522 29.5942 29.9522 29.5942 29.9522 29.5942H29.3522Z" fill="#E1E4F6" mask="url(#path-7-outside-1_146_1097)"/>
</svg>
