<svg width="24" height="24" viewBox="0 0 24 24" fill="none" xmlns="http://www.w3.org/2000/svg">
<g id="Outline/Status/Notification">
<path id="Icon" fill-rule="evenodd" clip-rule="evenodd" d="M12.9992 3C12.9992 2.44772 12.5515 2 11.9992 2C11.4469 2 10.9992 2.44772 10.9992 3V3.75H10.4418C8.21672 3.75 6.37512 5.48001 6.23622 7.70074L6.01522 11.2342C5.93096 12.5814 5.47867 13.8797 4.70761 14.9876C4.01093 15.9886 4.63115 17.3712 5.84208 17.5165L9.24921 17.9254V19C9.24921 20.5188 10.4804 21.75 11.9992 21.75C13.518 21.75 14.7492 20.5188 14.7492 19V17.9254L18.1563 17.5165C19.3673 17.3712 19.9875 15.9886 19.2908 14.9876C18.5197 13.8797 18.0674 12.5814 17.9832 11.2342L17.7622 7.70074C17.6233 5.48001 15.7817 3.75 13.5566 3.75H12.9992V3ZM10.4418 5.25C9.00879 5.25 7.82275 6.36417 7.7333 7.79438L7.5123 11.3278C7.4109 12.949 6.86664 14.5112 5.9388 15.8444C5.88844 15.9168 5.93327 16.0167 6.0208 16.0272L9.75846 16.4757C11.2469 16.6543 12.7515 16.6543 14.2399 16.4757L17.9776 16.0272C18.0651 16.0167 18.11 15.9168 18.0596 15.8444C17.1318 14.5112 16.5875 12.949 16.4861 11.3278L16.2651 7.79438C16.1757 6.36417 14.9896 5.25 13.5566 5.25H10.4418ZM11.9992 20.25C11.3089 20.25 10.7492 19.6904 10.7492 19V18.25H13.2492V19C13.2492 19.6904 12.6896 20.25 11.9992 20.25Z" fill="black"/>
</g>
</svg>
