<svg width="443" height="91" viewBox="0 0 443 91" fill="none" xmlns="http://www.w3.org/2000/svg">
<path opacity="0.5" d="M54 71C73.33 71 89 55.33 89 36C89 16.67 73.33 1 54 1C34.67 1 19 16.67 19 36C19 55.33 34.67 71 54 71Z" fill="#D8CBFE"/>
<path d="M55.9762 52.3788C55.9762 36.7174 43.4577 24 27.9881 24C12.5423 24 0 36.6932 0 52.3788C0 68.0402 12.5185 80.7576 27.9881 80.7576C32.0816 80.7576 35.9609 79.8406 39.4832 78.2479L52.8585 90V65.4099C54.8576 61.5006 56 57.0845 56 52.4029L55.9762 52.3788Z" fill="#7E51FD"/>
<path d="M416.78 19.9805C424.87 19.9805 431.25 22.1905 435.94 26.6005C440.61 31.0105 442.95 37.6705 442.95 46.5605V55.4905H408.76C408.89 58.5005 409.98 60.9805 412.02 62.9405C414.06 64.9105 417.01 65.8905 420.9 65.8905C424.37 65.8905 427.55 65.5405 430.43 64.8405C433.31 64.1405 439.88 62.9705 442.96 61.4305L441.69 73.6805C437.46 77.1305 433.75 78.4305 430.57 79.1305C427.39 79.8305 423.4 80.1805 418.59 80.1805C412.97 80.1805 407.98 79.1405 403.6 77.0705C399.22 75.0105 395.76 71.7805 393.22 67.4105C390.68 63.0405 389.41 57.3805 389.41 50.4505C389.41 43.5205 390.57 37.7905 392.87 33.2805C395.18 28.7605 398.38 25.4205 402.49 23.2505C406.6 21.0805 411.37 20.0005 416.78 20.0005V19.9805ZM417.48 33.6305C415.21 33.6305 413.32 34.3705 411.82 35.8405C410.32 37.3105 409.43 39.6605 409.16 42.8805H425.6C425.54 40.2905 424.82 38.1005 423.45 36.3105C422.08 34.5205 420.09 33.6305 417.49 33.6305H417.48Z" fill="#7E51FD"/>
<path d="M115.13 20.1719C118.62 20.1719 121.43 20.8219 123.56 22.1119C125.69 23.4119 127.42 25.0019 128.74 26.9019V21.0419H145.24V68.8219C145.24 75.5519 143.06 81.5419 138.71 85.0519C134.35 88.5519 127.66 90.3119 118.64 90.3119C114.61 90.3119 111.07 90.1119 108 89.7119C104.94 89.3119 100.28 88.5919 97.46 87.5619V75.7219H117.65C124.56 75.7219 128.74 70.5519 128.74 65.8419V66.4119V60.4819C127.54 62.3719 125.18 64.0019 123.11 65.3519C121.04 66.7019 118.28 67.3819 114.86 67.3819C109.57 67.3819 105.27 65.2819 101.97 61.0819C98.67 56.8819 97 52.9819 97 44.9319C97 36.8819 98.68 30.7419 102.05 26.5119C105.42 22.2819 109.78 20.1719 115.13 20.1719ZM121.62 32.9319C116.87 32.9319 114.5 37.0119 114.5 45.1819C114.5 49.3219 115.1 52.3019 116.3 54.1119C117.5 55.9219 119.37 56.8319 121.89 56.8319C124.66 56.8319 126.59 55.9819 127.71 54.2919C128.82 52.5919 129.38 50.0519 129.38 46.6519V44.6719C129.38 40.9319 128.85 38.0419 127.8 36.0019C126.75 33.9619 124.69 32.9319 121.62 32.9319Z" fill="#7E51FD"/>
<path d="M170.17 80.17H150.25V1H170.17V80.17Z" fill="#7E51FD"/>
<path d="M195.09 80.1719H175.17V20.1719H195.09V80.1719Z" fill="#7E51FD"/>
<path d="M188.27 14.6483H182C178.23 14.6483 175.17 11.5883 175.17 7.81828C175.17 4.04828 178.23 0.988281 182 0.988281H188.27C192.04 0.988281 195.1 4.04828 195.1 7.81828C195.1 11.5883 192.04 14.6483 188.27 14.6483Z" fill="#7E51FD"/>
<path d="M263.7 20.1719C269.67 20.1719 274.22 21.8919 277.36 25.3419C280.5 28.7919 282.07 34.2719 282.07 41.8119V80.1819H264.07V48.1019C264.07 43.6219 263.54 40.5219 262.47 38.7719C261.4 37.0319 259.83 36.1619 257.76 36.1619C254.87 36.1619 252.86 37.6019 251.73 40.4719C250.6 43.3519 250.03 47.4219 250.03 52.6719V80.1719H232.03V48.0919C232.03 43.8319 231.53 40.7719 230.52 38.9219C229.51 37.0719 228.01 36.1519 226 36.1519C222.92 36.1519 220.84 37.7319 219.74 40.8919C218.64 44.0519 218.09 48.5419 218.09 54.3719V80.1619H200.09V20.1819H216.77V28.4919C218.15 26.0719 220.14 24.0819 222.76 22.5219C225.36 20.9619 228.58 20.1819 232.42 20.1819C236.26 20.1819 239.41 20.9119 241.89 22.3719C244.37 23.8319 246.4 25.8319 247.97 28.3919C249.6 25.7619 252.29 23.7419 254.89 22.3119C257.5 20.8919 260.43 20.1819 263.7 20.1819V20.1719Z" fill="#7E51FD"/>
<path d="M318.717 19.3086C324.454 19.3086 328.941 21.4586 332.199 25.7486C335.437 30.0386 337.061 36.2186 337.061 44.2786C337.061 49.7686 336.238 54.3986 334.582 58.1686C332.926 61.9386 330.682 64.7686 327.84 66.6686C324.999 68.5686 321.761 69.5186 318.15 69.5186C314.539 69.5186 311.708 68.9086 309.678 67.6786C307.648 66.4586 306.142 65.1986 305.02 63.9086V71.9586L305.041 90.5286H287.969L287.061 20.1986H305.041V26.3286C306.291 24.4586 307.894 22.8286 310.041 21.4286C312.189 20.0286 315.073 19.3286 318.695 19.3286L318.717 19.3086ZM311.975 32.4486C309.347 32.4486 307.541 33.3186 306.537 35.0786C305.543 36.8286 305.009 39.4286 304.945 42.8786V44.1886C304.945 48.0386 305.447 50.9786 306.441 52.9886C307.434 54.9986 309.304 56.0086 312.061 56.0086C314.304 56.0086 316.003 55.0986 317.167 53.2986C318.321 51.4886 318.898 48.4186 318.898 44.0986C318.898 39.7786 318.311 36.8286 317.125 35.0786C315.939 33.3286 314.229 32.4486 311.986 32.4486H311.975Z" fill="#7E51FD"/>
<path d="M384.411 61.3319C384.411 64.9619 383.651 68.2119 382.121 71.0719C380.601 73.9319 378.161 76.1719 374.821 77.7719C371.481 79.3719 367.091 80.1819 361.631 80.1819C357.801 80.1819 354.381 79.9519 351.361 79.5019C348.341 79.0419 345.281 78.1919 342.161 76.9319V60.9119C345.601 62.5919 349.071 63.7919 352.581 64.5219C356.081 65.2519 358.841 65.6219 360.851 65.6219C364.881 65.6219 366.881 64.6419 366.881 62.6919C366.881 61.8519 366.561 61.1219 365.911 60.4919C365.261 59.8619 364.101 59.1719 362.451 58.3919C360.791 57.6219 358.441 56.5819 355.391 55.2519C350.911 53.2919 347.571 50.9919 345.371 48.3419C343.171 45.6919 342.061 41.9919 342.061 37.2419C342.061 31.5819 344.091 27.3319 348.141 24.4619C352.191 21.6019 357.571 20.1719 364.251 20.1719C367.821 20.1719 371.161 20.5919 374.271 21.4319C377.391 22.2719 380.631 23.4919 384.011 25.1019L378.951 37.9819C376.291 36.6619 373.601 35.6119 370.871 34.8419C368.151 34.0719 365.971 33.6919 364.351 33.6919C361.291 33.6919 359.771 34.4919 359.771 36.1019C359.771 36.8719 360.051 37.5119 360.601 38.0419C361.151 38.5619 362.211 39.1919 363.761 39.9219C365.321 40.6519 367.591 41.6519 370.571 42.9019C373.691 44.3019 376.261 45.7619 378.311 47.3019C380.351 48.8419 381.881 50.7319 382.881 52.9619C383.891 55.2019 384.391 57.9819 384.391 61.3419L384.411 61.3319Z" fill="#7E51FD"/>
</svg>
